<svg width="417.7" height="75.103" viewBox="0 0 417.7 75.103" xmlns="http://www.w3.org/2000/svg"><g id="svgGroup" stroke-linecap="round" fill-rule="evenodd" font-size="9pt" stroke="#7b4b9400" stroke-width="0.25mm" fill="#5c5d8d" style="stroke:#7b4b9400;stroke-width:0.25mm;fill:#5c5d8d"><path d="M 190.3 63.903 L 191.2 1.903 Q 192.8 0.303 194.6 0.303 A 8.74 8.74 0 0 1 195.647 0.361 Q 196.176 0.425 196.611 0.559 A 3.556 3.556 0 0 1 197.4 0.903 A 684.555 684.555 0 0 1 197.706 7.259 Q 198.074 15.749 198.098 21.934 A 220.045 220.045 0 0 1 198.1 22.803 L 197.3 69.103 L 197.3 72.903 A 21.807 21.807 0 0 1 195.53 73.941 Q 193.723 74.882 192.332 75.061 A 4.953 4.953 0 0 1 191.7 75.103 L 190.5 74.903 Q 189.734 74.52 189.233 74.284 A 23.405 23.405 0 0 0 188.95 74.153 Q 188.533 73.963 187.915 73.257 A 12.027 12.027 0 0 1 187.5 72.753 Q 186.631 71.642 186.321 71.138 A 4.07 4.07 0 0 1 186.3 71.103 A 52.971 52.971 0 0 0 186.133 70.827 Q 185.855 70.37 185.309 69.485 A 868.174 868.174 0 0 0 184.95 68.903 A 5034.479 5034.479 0 0 1 184.48 68.141 Q 183.803 67.045 183.5 66.553 A 140.382 140.382 0 0 0 183.324 66.268 Q 182.444 64.846 177.85 57.453 A 1964.896 1964.896 0 0 0 176.017 54.507 Q 172.629 49.076 171.396 47.199 A 52.262 52.262 0 0 0 171.2 46.903 A 1756.747 1756.747 0 0 0 170.437 45.759 Q 169.187 43.888 166.811 40.335 A 25671.081 25671.081 0 0 0 165.25 38.003 Q 161.766 32.796 159.426 29.642 A 76.022 76.022 0 0 0 158.1 27.903 A 186.061 186.061 0 0 0 152.494 21.087 Q 149.662 17.816 147.013 15.124 A 90.543 90.543 0 0 0 143.9 12.103 A 685.034 685.034 0 0 1 144.33 29.181 A 829.002 829.002 0 0 1 144.4 40.103 Q 144.4 55.003 143.8 71.903 Q 142.6 73.703 137.1 73.703 A 12736.244 12736.244 0 0 0 137.086 54.041 Q 137.03 17.855 136.75 5.966 A 269.152 269.152 0 0 0 136.7 4.103 A 8.805 8.805 0 0 1 137.849 3.173 Q 139.148 2.303 140.4 2.303 A 6.651 6.651 0 0 1 143.366 3.015 A 8.124 8.124 0 0 1 143.9 3.303 Q 146.5 4.903 149.7 8.103 A 173.359 173.359 0 0 1 164.953 25.634 A 200.57 200.57 0 0 1 169.75 32.203 A 486.267 486.267 0 0 1 178.335 44.915 Q 182.626 51.478 187.211 58.877 A 833.603 833.603 0 0 1 190.3 63.903 Z M 409.9 63.903 L 410.8 1.903 Q 412.4 0.303 414.2 0.303 A 8.74 8.74 0 0 1 415.247 0.361 Q 415.776 0.425 416.211 0.559 A 3.556 3.556 0 0 1 417 0.903 A 684.555 684.555 0 0 1 417.306 7.259 Q 417.674 15.749 417.698 21.934 A 220.045 220.045 0 0 1 417.7 22.803 L 416.9 69.103 L 416.9 72.903 A 21.807 21.807 0 0 1 415.13 73.941 Q 413.323 74.882 411.932 75.061 A 4.953 4.953 0 0 1 411.3 75.103 L 410.1 74.903 Q 409.334 74.52 408.833 74.284 A 23.405 23.405 0 0 0 408.55 74.153 Q 408.133 73.963 407.515 73.257 A 12.027 12.027 0 0 1 407.1 72.753 Q 406.231 71.642 405.921 71.138 A 4.07 4.07 0 0 1 405.9 71.103 A 52.971 52.971 0 0 0 405.733 70.827 Q 405.455 70.37 404.909 69.485 A 868.174 868.174 0 0 0 404.55 68.903 A 5034.479 5034.479 0 0 1 404.08 68.141 Q 403.403 67.045 403.1 66.553 A 140.382 140.382 0 0 0 402.924 66.268 Q 402.044 64.846 397.45 57.453 A 1964.896 1964.896 0 0 0 395.617 54.507 Q 392.229 49.076 390.996 47.199 A 52.262 52.262 0 0 0 390.8 46.903 A 1756.747 1756.747 0 0 0 390.037 45.759 Q 388.787 43.888 386.411 40.335 A 25671.081 25671.081 0 0 0 384.85 38.003 Q 381.366 32.796 379.026 29.642 A 76.022 76.022 0 0 0 377.7 27.903 A 186.061 186.061 0 0 0 372.094 21.087 Q 369.262 17.816 366.613 15.124 A 90.543 90.543 0 0 0 363.5 12.103 A 685.034 685.034 0 0 1 363.93 29.181 A 829.002 829.002 0 0 1 364 40.103 Q 364 55.003 363.4 71.903 Q 362.2 73.703 356.7 73.703 A 12736.244 12736.244 0 0 0 356.686 54.041 Q 356.63 17.855 356.35 5.966 A 269.152 269.152 0 0 0 356.3 4.103 A 8.805 8.805 0 0 1 357.449 3.173 Q 358.748 2.303 360 2.303 A 6.651 6.651 0 0 1 362.966 3.015 A 8.124 8.124 0 0 1 363.5 3.303 Q 366.1 4.903 369.3 8.103 A 173.359 173.359 0 0 1 384.553 25.634 A 200.57 200.57 0 0 1 389.35 32.203 A 486.267 486.267 0 0 1 397.935 44.915 Q 402.226 51.478 406.811 58.877 A 833.603 833.603 0 0 1 409.9 63.903 Z M 262.4 61.503 L 263 38.703 Q 254.4 37.903 243.8 37.903 Q 233.2 37.903 221.7 40.003 Q 220.915 59.444 220.9 68.859 A 227.681 227.681 0 0 0 220.9 69.203 Q 218.938 70.772 217.562 71.11 A 2.991 2.991 0 0 1 216.85 71.203 Q 215.792 71.203 215.037 70.97 A 3.328 3.328 0 0 1 214.4 70.703 A 118.121 118.121 0 0 1 214.269 68.003 Q 214.153 64.961 214.116 60.855 A 448.611 448.611 0 0 1 214.1 56.903 Q 214.1 48.003 215.35 27.453 A 6993.416 6993.416 0 0 0 215.778 20.356 Q 216.468 8.825 216.646 5.005 A 89.909 89.909 0 0 0 216.7 3.703 Q 217.946 1.69 220.938 1.606 A 9.4 9.4 0 0 1 221.2 1.603 Q 222.2 1.603 223.1 2.003 A 44.697 44.697 0 0 1 223.271 4.105 Q 223.4 6.281 223.4 9.103 Q 223.4 13.403 222.8 22.253 A 541.061 541.061 0 0 0 222.545 26.22 Q 222.25 31.09 222.207 33.681 A 49.684 49.684 0 0 0 222.2 34.503 A 156.047 156.047 0 0 1 234.548 32.942 A 120.012 120.012 0 0 1 244.6 32.503 A 259.015 259.015 0 0 1 253.153 32.637 Q 257.055 32.766 260.531 33.02 A 147.129 147.129 0 0 1 262.8 33.203 Q 263.03 30.37 263.084 25.485 A 289.586 289.586 0 0 0 263.1 22.303 Q 263.1 15.103 262.7 3.303 A 4.851 4.851 0 0 1 266.194 0.987 A 6.969 6.969 0 0 1 267.3 0.903 Q 268.5 0.903 269.5 1.503 Q 270.2 12.403 270.2 23.003 Q 270.2 33.603 269.75 49.903 A 12835.874 12835.874 0 0 0 269.57 56.484 Q 269.347 64.729 269.248 68.859 A 751.004 751.004 0 0 0 269.2 71.003 Q 267.196 72.339 265.819 72.559 A 3.288 3.288 0 0 1 265.3 72.603 A 12.1 12.1 0 0 1 264.471 72.576 Q 263.563 72.514 263 72.303 Q 262.4 67.003 262.4 61.503 Z M 121.216 73.359 A 5.171 5.171 0 0 0 125 71.203 Q 123.5 67.003 122.1 57.403 Q 120.7 47.803 119.2 38.603 Q 117.7 29.403 115.2 20.303 A 54.326 54.326 0 0 0 114.889 19.214 Q 113.769 15.447 112.227 12.308 A 31.177 31.177 0 0 0 107.85 5.603 A 19.104 19.104 0 0 0 107.077 4.762 A 15.29 15.29 0 0 0 95.7 0.003 A 19.715 19.715 0 0 0 88.464 1.359 A 23.095 23.095 0 0 0 82.2 5.103 A 19.534 19.534 0 0 0 82.155 5.141 Q 80.745 6.35 79.43 7.942 A 31.354 31.354 0 0 0 77.15 11.103 Q 74.8 14.803 73.2 18.403 A 50.137 50.137 0 0 0 72.579 19.864 Q 71.9 21.533 71.239 23.469 A 94.001 94.001 0 0 0 70.1 27.053 Q 69.303 29.736 68.69 32.136 A 95.508 95.508 0 0 0 67.75 36.153 A 150.311 150.311 0 0 0 67.214 38.835 Q 66.619 41.953 66 45.803 Q 65.1 51.403 64.65 55.053 A 802.906 802.906 0 0 0 64.354 57.485 Q 64.199 58.777 64.029 60.221 A 1608.583 1608.583 0 0 0 63.6 63.903 Q 63.15 67.803 62.869 70.128 A 353.07 353.07 0 0 1 62.7 71.503 A 5.334 5.334 0 0 0 63.161 71.802 Q 65.884 73.374 69.2 70.703 Q 69.591 68.515 70.317 63.062 A 781.361 781.361 0 0 0 70.75 59.753 Q 71.8 51.603 72.7 47.503 A 135.173 135.173 0 0 1 73.852 47.387 Q 77.921 46.997 82.487 46.8 A 226.772 226.772 0 0 1 92.2 46.603 Q 103.1 46.603 114 47.003 A 56.42 56.42 0 0 1 114.202 48.274 Q 114.561 50.693 115.117 55.349 A 808.314 808.314 0 0 1 115.55 59.053 A 101.993 101.993 0 0 0 115.646 59.861 Q 116.337 65.484 117.48 69.475 A 29.383 29.383 0 0 0 118.8 73.203 Q 119.6 73.403 120.4 73.403 A 7.438 7.438 0 0 0 121.216 73.359 Z M 340.816 73.359 A 5.171 5.171 0 0 0 344.6 71.203 Q 343.1 67.003 341.7 57.403 Q 340.3 47.803 338.8 38.603 Q 337.3 29.403 334.8 20.303 A 54.326 54.326 0 0 0 334.489 19.214 Q 333.369 15.447 331.827 12.308 A 31.177 31.177 0 0 0 327.45 5.603 A 19.104 19.104 0 0 0 326.677 4.762 A 15.29 15.29 0 0 0 315.3 0.003 A 19.715 19.715 0 0 0 308.064 1.359 A 23.095 23.095 0 0 0 301.8 5.103 A 19.534 19.534 0 0 0 301.755 5.141 Q 300.345 6.35 299.03 7.942 A 31.354 31.354 0 0 0 296.75 11.103 Q 294.4 14.803 292.8 18.403 A 50.137 50.137 0 0 0 292.179 19.864 Q 291.5 21.533 290.839 23.469 A 94.001 94.001 0 0 0 289.7 27.053 Q 288.903 29.736 288.29 32.136 A 95.508 95.508 0 0 0 287.35 36.153 A 150.311 150.311 0 0 0 286.814 38.835 Q 286.219 41.953 285.6 45.803 Q 284.7 51.403 284.25 55.053 A 802.906 802.906 0 0 0 283.954 57.485 Q 283.799 58.777 283.629 60.221 A 1608.583 1608.583 0 0 0 283.2 63.903 Q 282.75 67.803 282.469 70.128 A 353.07 353.07 0 0 1 282.3 71.503 A 5.334 5.334 0 0 0 282.761 71.802 Q 285.484 73.374 288.8 70.703 Q 289.191 68.515 289.917 63.062 A 781.361 781.361 0 0 0 290.35 59.753 Q 291.4 51.603 292.3 47.503 A 135.173 135.173 0 0 1 293.452 47.387 Q 297.521 46.997 302.087 46.8 A 226.772 226.772 0 0 1 311.8 46.603 Q 322.7 46.603 333.6 47.003 A 56.42 56.42 0 0 1 333.802 48.274 Q 334.161 50.693 334.717 55.349 A 808.314 808.314 0 0 1 335.15 59.053 A 101.993 101.993 0 0 0 335.246 59.861 Q 335.937 65.484 337.08 69.475 A 29.383 29.383 0 0 0 338.4 73.203 Q 339.2 73.403 340 73.403 A 7.438 7.438 0 0 0 340.816 73.359 Z M 1 59.803 L 1.3 39.503 A 319.071 319.071 0 0 0 1.051 26.561 Q 0.811 20.663 0.34 15.423 A 179.948 179.948 0 0 0 0 12.003 A 6.766 6.766 0 0 1 1.885 7.303 A 9.506 9.506 0 0 1 2.6 6.603 Q 4.956 4.518 8.709 3.337 A 25.2 25.2 0 0 1 9.5 3.103 A 70.009 70.009 0 0 1 20.839 1.219 A 87.928 87.928 0 0 1 28.4 0.903 Q 38.112 0.903 44.811 4.022 A 24.389 24.389 0 0 1 49.35 6.753 Q 56.922 12.543 56.999 24.455 A 37.972 37.972 0 0 1 57 24.703 Q 57 36.407 47.831 43.62 A 30.173 30.173 0 0 1 47.2 44.103 A 36.542 36.542 0 0 1 30.487 50.888 A 48.536 48.536 0 0 1 23.3 51.403 A 38.804 38.804 0 0 1 14.086 50.245 A 49.955 49.955 0 0 1 8.2 48.403 A 74.441 74.441 0 0 0 7.936 51.735 Q 7.733 55.198 7.705 59.849 A 253.08 253.08 0 0 0 7.7 61.403 L 7.8 66.303 A 117.304 117.304 0 0 1 7.8 66.34 Q 7.799 68.127 7.743 70.025 A 142.557 142.557 0 0 1 7.7 71.303 A 3.917 3.917 0 0 1 7.277 71.805 Q 7.016 72.065 6.732 72.231 A 2.291 2.291 0 0 1 6.6 72.303 Q 6 72.603 5.75 72.753 A 1.336 1.336 0 0 1 5.569 72.842 Q 5.375 72.921 5.094 72.983 A 4.957 4.957 0 0 1 5 73.003 Q 4.517 73.099 4.314 73.103 A 0.865 0.865 0 0 1 4.3 73.103 Q 3.738 73.29 2.999 73.302 A 6.252 6.252 0 0 1 2.9 73.303 L 1.2 73.303 Q 1.006 66.044 1 60.191 A 364.562 364.562 0 0 1 1 59.803 Z M 8 41.203 A 28.374 28.374 0 0 0 19.82 45.664 Q 22.443 46.053 25.294 46.053 A 41.964 41.964 0 0 0 25.5 46.053 A 27.7 27.7 0 0 0 34.563 44.573 A 24.025 24.025 0 0 0 42.7 39.753 Q 49.7 33.503 49.7 24.403 A 18.109 18.109 0 0 0 48.81 18.573 A 14.476 14.476 0 0 0 42.5 10.803 A 29.177 29.177 0 0 0 31.823 6.834 A 39.071 39.071 0 0 0 25.25 6.303 A 37.296 37.296 0 0 0 15.235 7.601 A 31.375 31.375 0 0 0 7.5 10.903 A 89.578 89.578 0 0 1 7.67 13.948 Q 8 21.865 8 41.203 Z M 106.45 15.703 A 26.15 26.15 0 0 0 104.692 12.076 Q 103.59 10.209 102.262 8.803 A 14.945 14.945 0 0 0 101.5 8.053 A 10.384 10.384 0 0 0 94.846 5.323 A 13.528 13.528 0 0 0 94.1 5.303 A 9.626 9.626 0 0 0 89.377 6.589 Q 87.953 7.38 86.562 8.657 A 20.357 20.357 0 0 0 85.6 9.603 A 28.993 28.993 0 0 0 80.858 16.329 A 36.497 36.497 0 0 0 79.1 20.303 Q 74.943 31.808 73.777 41.63 A 69.854 69.854 0 0 0 73.7 42.303 Q 83.7 41.203 93.8 41.203 Q 103.9 41.203 113.3 41.803 Q 112.912 40.348 111.866 35.039 A 609.229 609.229 0 0 1 111.8 34.703 A 180.278 180.278 0 0 0 110.828 30.061 Q 110.355 27.948 109.872 26.075 A 102.81 102.81 0 0 0 109.55 24.853 Q 108.4 20.603 106.45 15.703 Z M 326.05 15.703 A 26.15 26.15 0 0 0 324.292 12.076 Q 323.19 10.209 321.862 8.803 A 14.945 14.945 0 0 0 321.1 8.053 A 10.384 10.384 0 0 0 314.446 5.323 A 13.528 13.528 0 0 0 313.7 5.303 A 9.626 9.626 0 0 0 308.977 6.589 Q 307.553 7.38 306.162 8.657 A 20.357 20.357 0 0 0 305.2 9.603 A 28.993 28.993 0 0 0 300.458 16.329 A 36.497 36.497 0 0 0 298.7 20.303 Q 294.543 31.808 293.377 41.63 A 69.854 69.854 0 0 0 293.3 42.303 Q 303.3 41.203 313.4 41.203 Q 323.5 41.203 332.9 41.803 Q 332.512 40.348 331.466 35.039 A 609.229 609.229 0 0 1 331.4 34.703 A 180.278 180.278 0 0 0 330.428 30.061 Q 329.955 27.948 329.472 26.075 A 102.81 102.81 0 0 0 329.15 24.853 Q 328 20.603 326.05 15.703 Z" vector-effect="non-scaling-stroke"/></g></svg>